<svg width="20" height="18" viewBox="0 0 20 18" fill="none" xmlns="http://www.w3.org/2000/svg">
<path d="M13.358 14.1233C11.9659 14.1233 10.6627 13.5783 9.6958 12.6533" stroke="#BDBDBD" stroke-width="2" stroke-linecap="round" stroke-linejoin="round"/>
<path d="M5.55017 5.34215C4.3444 4.20179 2.72692 3.53085 1 3.53085" stroke="#BDBDBD" stroke-width="2" stroke-linecap="round" stroke-linejoin="round"/>
<path d="M19.0628 15.1444C19.6895 14.7527 19.6895 13.84 19.0628 13.4484L14.8879 10.839C14.2219 10.4228 13.3579 10.9016 13.3579 11.687V16.9057C13.3579 17.6911 14.2219 18.17 14.8879 17.7537L19.0628 15.1444Z" fill="#BDBDBD"/>
<path d="M13.358 3.53087V3.53087C11.2199 3.53087 9.29148 4.81648 8.46912 6.79012L7.1111 10.0494C6.08316 12.5164 3.67264 14.1234 1 14.1234V14.1234" stroke="#BDBDBD" stroke-width="2" stroke-linecap="round" stroke-linejoin="round"/>
<path d="M18.1803 4.55177C18.8069 4.1601 18.8069 3.24744 18.1803 2.85577L14.0053 0.246446C13.3393 -0.169834 12.4753 0.309009 12.4753 1.09444V6.3131C12.4753 7.09853 13.3393 7.57738 14.0053 7.1611L18.1803 4.55177Z" fill="#BDBDBD"/>
</svg>
